<svg xmlns="http://www.w3.org/2000/svg" viewBox="0 0 64 64">
  <defs>
    <linearGradient id="bg" x1="0" y1="0" x2="1" y2="1">
      <stop offset="0%" stop-color="#4f6ef7"/>
      <stop offset="100%" stop-color="#3b57d9"/>
    </linearGradient>
  </defs>
  <rect width="64" height="64" rx="14" fill="url(#bg)"/>
  <path d="M44 14c-3 1-8 6-12 12l-8 10-2 3-1 4 1 2 3 1 4-1 3-2 10-8c6-4 11-9 12-12 1-2 0-4-2-6l-4-3c-2-1-3-1-4 0z" fill="#fff" opacity=".9"/>
  <path d="M22 39l-6 12 12-6" fill="#fff" opacity=".6"/>
  <path d="M24 41l-4 7 7-4" fill="#e8ecff" opacity=".8"/>
  <path d="M44 14c1-1 2-1 4 0l4 3c2 2 3 4 2 6l-3-2c-1-2-3-3-5-2" fill="#c8d4ff" opacity=".5"/>
</svg>
